<![CDATA[<mxfile host="app.diagrams.net" modified="2025-06-26T11:15:00.000Z" agent="Mozilla/5.0 (Windows NT 10.0; Win64; x64) AppleWebKit/537.36 (KHTML, like Gecko) Chrome/96.0.4664.110 Safari/537.36" etag="123456789" version="21.5.2" type="device">
  <diagram id="C5RBs43oDa-KdzZeNtuy" name="Arquitetura de Microsserviços">
    <mxGraphModel dx="1422" dy="798" grid="1" gridSize="10" guides="1" tooltips="1" connect="1" arrows="1" fold="1" page="1" pageScale="1" pageWidth="827" pageHeight="1169" math="0" shadow="0">
      <root>
        <mxCell id="WIyWlLk6GJQsqaUBKTNV-0" />
        <mxCell id="WIyWlLk6GJQsqaUBKTNV-1" parent="WIyWlLk6GJQsqaUBKTNV-0" />
        
        <!-- Título -->
        <mxCell id="title" value="Arquitetura de Microsserviços - Processamento de Vídeos" style="text;html=1;strokeColor=none;fillColor=none;align=center;verticalAlign=middle;whiteSpace=wrap;rounded=0;fontSize=20;fontStyle=1" parent="WIyWlLk6GJQsqaUBKTNV-1" vertex="1">
          <mxGeometry x="164" y="30" width="500" height="40" as="geometry" />
        </mxCell>
        
        <!-- Ingress/API Gateway -->
        <mxCell id="api-gateway" value="API Gateway / Ingress" style="rounded=1;whiteSpace=wrap;html=1;fillColor=#dae8fc;strokeColor=#6c8ebf;fontStyle=1" parent="WIyWlLk6GJQsqaUBKTNV-1" vertex="1">
          <mxGeometry x="354" y="100" width="120" height="60" as="geometry" />
        </mxCell>
        
        <!-- Autenticação -->
        <mxCell id="auth-service" value="Serviço de&lt;br&gt;Autenticação" style="rounded=1;whiteSpace=wrap;html=1;fillColor=#ffe6cc;strokeColor=#d79b00;fontStyle=1" parent="WIyWlLk6GJQsqaUBKTNV-1" vertex="1">
          <mxGeometry x="164" y="100" width="120" height="60" as="geometry" />
        </mxCell>
        
        <!-- Linha de serviços principais -->
        
        <!-- Upload Service -->
        <mxCell id="upload-service" value="Serviço de Upload&lt;br&gt;(API REST)" style="rounded=1;whiteSpace=wrap;html=1;fillColor=#d5e8d4;strokeColor=#82b366;fontStyle=1" parent="WIyWlLk6GJQsqaUBKTNV-1" vertex="1">
          <mxGeometry x="164" y="200" width="120" height="60" as="geometry" />
        </mxCell>
        
        <!-- Video Processing Service -->
        <mxCell id="processing-service" value="Serviço de&lt;br&gt;Processamento" style="rounded=1;whiteSpace=wrap;html=1;fillColor=#d5e8d4;strokeColor=#82b366;fontStyle=1" parent="WIyWlLk6GJQsqaUBKTNV-1" vertex="1">
          <mxGeometry x="354" y="200" width="120" height="60" as="geometry" />
        </mxCell>
        
        <!-- Video Storage Service -->
        <mxCell id="storage-service" value="Serviço de&lt;br&gt;Armazenamento" style="rounded=1;whiteSpace=wrap;html=1;fillColor=#d5e8d4;strokeColor=#82b366;fontStyle=1" parent="WIyWlLk6GJQsqaUBKTNV-1" vertex="1">
          <mxGeometry x="544" y="200" width="120" height="60" as="geometry" />
        </mxCell>
        
        <!-- Messaging System (RabbitMQ) -->
        <mxCell id="rabbitmq" value="Message Broker&lt;br&gt;(RabbitMQ)" style="rounded=1;whiteSpace=wrap;html=1;fillColor=#f8cecc;strokeColor=#b85450;fontStyle=1" parent="WIyWlLk6GJQsqaUBKTNV-1" vertex="1">
          <mxGeometry x="354" y="300" width="120" height="60" as="geometry" />
        </mxCell>
        
        <!-- Database Systems -->
        
        <!-- PostgreSQL -->
        <mxCell id="postgres" value="PostgreSQL&lt;br&gt;(Metadados)" style="shape=cylinder3;whiteSpace=wrap;html=1;boundedLbl=1;backgroundOutline=1;size=15;fillColor=#e1d5e7;strokeColor=#9673a6;fontStyle=1" parent="WIyWlLk6GJQsqaUBKTNV-1" vertex="1">
          <mxGeometry x="194" y="400" width="80" height="80" as="geometry" />
        </mxCell>
        
        <!-- Redis -->
        <mxCell id="redis" value="Redis&lt;br&gt;(Cache)" style="shape=cylinder3;whiteSpace=wrap;html=1;boundedLbl=1;backgroundOutline=1;size=15;fillColor=#e1d5e7;strokeColor=#9673a6;fontStyle=1" parent="WIyWlLk6GJQsqaUBKTNV-1" vertex="1">
          <mxGeometry x="374" y="400" width="80" height="80" as="geometry" />
        </mxCell>
        
        <!-- Object Storage -->
        <mxCell id="minio" value="MinIO / S3&lt;br&gt;(Videos)" style="shape=cylinder3;whiteSpace=wrap;html=1;boundedLbl=1;backgroundOutline=1;size=15;fillColor=#e1d5e7;strokeColor=#9673a6;fontStyle=1" parent="WIyWlLk6GJQsqaUBKTNV-1" vertex="1">
          <mxGeometry x="554" y="400" width="80" height="80" as="geometry" />
        </mxCell>
        
        <!-- Monitoring & Logging -->
        <mxCell id="monitoring" value="Monitoramento &amp; Logging&lt;br&gt;(Prometheus, Grafana, ELK)" style="rounded=1;whiteSpace=wrap;html=1;fillColor=#fff2cc;strokeColor=#d6b656;fontStyle=1" parent="WIyWlLk6GJQsqaUBKTNV-1" vertex="1">
          <mxGeometry x="164" y="520" width="500" height="40" as="geometry" />
        </mxCell>
        
        <!-- CI/CD Pipeline -->
        <mxCell id="cicd" value="CI/CD Pipeline&lt;br&gt;(GitHub Actions, Jenkins)" style="rounded=1;whiteSpace=wrap;html=1;fillColor=#fff2cc;strokeColor=#d6b656;fontStyle=1" parent="WIyWlLk6GJQsqaUBKTNV-1" vertex="1">
          <mxGeometry x="164" y="580" width="500" height="40" as="geometry" />
        </mxCell>
        
        <!-- Kubernetes -->
        <mxCell id="k8s" value="Kubernetes Cluster" style="rounded=1;whiteSpace=wrap;html=1;fillColor=#f5f5f5;strokeColor=#666666;fontStyle=1;fontColor=#333333;dashed=1;strokeWidth=2;" parent="WIyWlLk6GJQsqaUBKTNV-1" vertex="1">
          <mxGeometry x="134" y="640" width="560" height="40" as="geometry" />
        </mxCell>
        
        <!-- Connections -->
        
        <!-- Conexão API Gateway com Autenticação -->
        <mxCell id="conn-gateway-auth" value="" style="endArrow=classic;startArrow=classic;html=1;rounded=0;exitX=1;exitY=0.5;exitDx=0;exitDy=0;entryX=0;entryY=0.5;entryDx=0;entryDy=0;" edge="1" parent="WIyWlLk6GJQsqaUBKTNV-1" source="auth-service" target="api-gateway">
          <mxGeometry width="50" height="50" relative="1" as="geometry">
            <mxPoint x="394" y="390" as="sourcePoint" />
            <mxPoint x="444" y="340" as="targetPoint" />
          </mxGeometry>
        </mxCell>
        
        <!-- Conexão API Gateway com Upload -->
        <mxCell id="conn-gateway-upload" value="" style="endArrow=classic;html=1;rounded=0;exitX=0.25;exitY=1;exitDx=0;exitDy=0;entryX=0.5;entryY=0;entryDx=0;entryDy=0;" edge="1" parent="WIyWlLk6GJQsqaUBKTNV-1" source="api-gateway" target="upload-service">
          <mxGeometry width="50" height="50" relative="1" as="geometry">
            <mxPoint x="394" y="390" as="sourcePoint" />
            <mxPoint x="444" y="340" as="targetPoint" />
            <Array as="points">
              <mxPoint x="384" y="180" />
              <mxPoint x="224" y="180" />
            </Array>
          </mxGeometry>
        </mxCell>
        
        <!-- Conexão API Gateway com Processamento -->
        <mxCell id="conn-gateway-processing" value="" style="endArrow=classic;html=1;rounded=0;exitX=0.5;exitY=1;exitDx=0;exitDy=0;entryX=0.5;entryY=0;entryDx=0;entryDy=0;" edge="1" parent="WIyWlLk6GJQsqaUBKTNV-1" source="api-gateway" target="processing-service">
          <mxGeometry width="50" height="50" relative="1" as="geometry">
            <mxPoint x="394" y="390" as="sourcePoint" />
            <mxPoint x="444" y="340" as="targetPoint" />
          </mxGeometry>
        </mxCell>
        
        <!-- Conexão API Gateway com Storage -->
        <mxCell id="conn-gateway-storage" value="" style="endArrow=classic;html=1;rounded=0;exitX=0.75;exitY=1;exitDx=0;exitDy=0;entryX=0.5;entryY=0;entryDx=0;entryDy=0;" edge="1" parent="WIyWlLk6GJQsqaUBKTNV-1" source="api-gateway" target="storage-service">
          <mxGeometry width="50" height="50" relative="1" as="geometry">
            <mxPoint x="394" y="390" as="sourcePoint" />
            <mxPoint x="444" y="340" as="targetPoint" />
            <Array as="points">
              <mxPoint x="444" y="180" />
              <mxPoint x="604" y="180" />
            </Array>
          </mxGeometry>
        </mxCell>
        
        <!-- Conexão Upload com RabbitMQ -->
        <mxCell id="conn-upload-rabbitmq" value="" style="endArrow=classic;html=1;rounded=0;exitX=0.5;exitY=1;exitDx=0;exitDy=0;entryX=0.25;entryY=0;entryDx=0;entryDy=0;" edge="1" parent="WIyWlLk6GJQsqaUBKTNV-1" source="upload-service" target="rabbitmq">
          <mxGeometry width="50" height="50" relative="1" as="geometry">
            <mxPoint x="394" y="390" as="sourcePoint" />
            <mxPoint x="444" y="340" as="targetPoint" />
            <Array as="points">
              <mxPoint x="224" y="280" />
              <mxPoint x="384" y="280" />
            </Array>
          </mxGeometry>
        </mxCell>
        
        <!-- Conexão Processing com RabbitMQ -->
        <mxCell id="conn-processing-rabbitmq" value="" style="endArrow=classic;startArrow=classic;html=1;rounded=0;exitX=0.5;exitY=1;exitDx=0;exitDy=0;entryX=0.5;entryY=0;entryDx=0;entryDy=0;" edge="1" parent="WIyWlLk6GJQsqaUBKTNV-1" source="processing-service" target="rabbitmq">
          <mxGeometry width="50" height="50" relative="1" as="geometry">
            <mxPoint x="394" y="390" as="sourcePoint" />
            <mxPoint x="444" y="340" as="targetPoint" />
          </mxGeometry>
        </mxCell>
        
        <!-- Conexão Storage com RabbitMQ -->
        <mxCell id="conn-storage-rabbitmq" value="" style="endArrow=classic;html=1;rounded=0;exitX=0.5;exitY=1;exitDx=0;exitDy=0;entryX=0.75;entryY=0;entryDx=0;entryDy=0;" edge="1" parent="WIyWlLk6GJQsqaUBKTNV-1" source="storage-service" target="rabbitmq">
          <mxGeometry width="50" height="50" relative="1" as="geometry">
            <mxPoint x="394" y="390" as="sourcePoint" />
            <mxPoint x="444" y="340" as="targetPoint" />
            <Array as="points">
              <mxPoint x="604" y="280" />
              <mxPoint x="444" y="280" />
            </Array>
          </mxGeometry>
        </mxCell>
        
        <!-- Conexão Upload com PostgreSQL -->
        <mxCell id="conn-upload-postgres" value="" style="endArrow=classic;startArrow=classic;html=1;rounded=0;exitX=0.5;exitY=1;exitDx=0;exitDy=0;entryX=0.5;entryY=0;entryDx=0;entryDy=0;" edge="1" parent="WIyWlLk6GJQsqaUBKTNV-1" source="upload-service" target="postgres">
          <mxGeometry width="50" height="50" relative="1" as="geometry">
            <mxPoint x="394" y="390" as="sourcePoint" />
            <mxPoint x="444" y="340" as="targetPoint" />
            <Array as="points">
              <mxPoint x="224" y="380" />
              <mxPoint x="234" y="380" />
            </Array>
          </mxGeometry>
        </mxCell>
        
        <!-- Conexão Processing com Redis -->
        <mxCell id="conn-processing-redis" value="" style="endArrow=classic;startArrow=classic;html=1;rounded=0;exitX=0.5;exitY=1;exitDx=0;exitDy=0;entryX=0.5;entryY=0;entryDx=0;entryDy=0;" edge="1" parent="WIyWlLk6GJQsqaUBKTNV-1" source="rabbitmq" target="redis">
          <mxGeometry width="50" height="50" relative="1" as="geometry">
            <mxPoint x="394" y="390" as="sourcePoint" />
            <mxPoint x="444" y="340" as="targetPoint" />
          </mxGeometry>
        </mxCell>
        
        <!-- Conexão Storage com MinIO -->
        <mxCell id="conn-storage-minio" value="" style="endArrow=classic;startArrow=classic;html=1;rounded=0;exitX=1;exitY=0.5;exitDx=0;exitDy=0;entryX=0.5;entryY=0;entryDx=0;entryDy=0;" edge="1" parent="WIyWlLk6GJQsqaUBKTNV-1" source="rabbitmq" target="minio">
          <mxGeometry width="50" height="50" relative="1" as="geometry">
            <mxPoint x="394" y="390" as="sourcePoint" />
            <mxPoint x="444" y="340" as="targetPoint" />
            <Array as="points">
              <mxPoint x="594" y="330" />
            </Array>
          </mxGeometry>
        </mxCell>
        
        <!-- Legenda -->
        <mxCell id="legend-title" value="Legenda:" style="text;html=1;strokeColor=none;fillColor=none;align=left;verticalAlign=middle;whiteSpace=wrap;rounded=0;fontStyle=1" parent="WIyWlLk6GJQsqaUBKTNV-1" vertex="1">
          <mxGeometry x="134" y="700" width="60" height="20" as="geometry" />
        </mxCell>
        
        <!-- Legenda API Gateway -->
        <mxCell id="legend-gateway" value="" style="rounded=1;whiteSpace=wrap;html=1;fillColor=#dae8fc;strokeColor=#6c8ebf;" parent="WIyWlLk6GJQsqaUBKTNV-1" vertex="1">
          <mxGeometry x="134" y="730" width="20" height="20" as="geometry" />
        </mxCell>
        <mxCell id="legend-gateway-text" value="API Gateway / Ingress" style="text;html=1;strokeColor=none;fillColor=none;align=left;verticalAlign=middle;whiteSpace=wrap;rounded=0;" parent="WIyWlLk6GJQsqaUBKTNV-1" vertex="1">
          <mxGeometry x="164" y="730" width="130" height="20" as="geometry" />
        </mxCell>
        
        <!-- Legenda Authentication -->
        <mxCell id="legend-auth" value="" style="rounded=1;whiteSpace=wrap;html=1;fillColor=#ffe6cc;strokeColor=#d79b00;" parent="WIyWlLk6GJQsqaUBKTNV-1" vertex="1">
          <mxGeometry x="134" y="760" width="20" height="20" as="geometry" />
        </mxCell>
        <mxCell id="legend-auth-text" value="Autenticação" style="text;html=1;strokeColor=none;fillColor=none;align=left;verticalAlign=middle;whiteSpace=wrap;rounded=0;" parent="WIyWlLk6GJQsqaUBKTNV-1" vertex="1">
          <mxGeometry x="164" y="760" width="130" height="20" as="geometry" />
        </mxCell>
        
        <!-- Legenda Microservices -->
        <mxCell id="legend-services" value="" style="rounded=1;whiteSpace=wrap;html=1;fillColor=#d5e8d4;strokeColor=#82b366;" parent="WIyWlLk6GJQsqaUBKTNV-1" vertex="1">
          <mxGeometry x="134" y="790" width="20" height="20" as="geometry" />
        </mxCell>
        <mxCell id="legend-services-text" value="Microsserviços Core" style="text;html=1;strokeColor=none;fillColor=none;align=left;verticalAlign=middle;whiteSpace=wrap;rounded=0;" parent="WIyWlLk6GJQsqaUBKTNV-1" vertex="1">
          <mxGeometry x="164" y="790" width="130" height="20" as="geometry" />
        </mxCell>
        
        <!-- Legenda Messaging -->
        <mxCell id="legend-messaging" value="" style="rounded=1;whiteSpace=wrap;html=1;fillColor=#f8cecc;strokeColor=#b85450;" parent="WIyWlLk6GJQsqaUBKTNV-1" vertex="1">
          <mxGeometry x="354" y="730" width="20" height="20" as="geometry" />
        </mxCell>
        <mxCell id="legend-messaging-text" value="Message Broker" style="text;html=1;strokeColor=none;fillColor=none;align=left;verticalAlign=middle;whiteSpace=wrap;rounded=0;" parent="WIyWlLk6GJQsqaUBKTNV-1" vertex="1">
          <mxGeometry x="384" y="730" width="130" height="20" as="geometry" />
        </mxCell>
        
        <!-- Legenda Database -->
        <mxCell id="legend-db" value="" style="shape=cylinder3;whiteSpace=wrap;html=1;boundedLbl=1;backgroundOutline=1;size=5;fillColor=#e1d5e7;strokeColor=#9673a6;" parent="WIyWlLk6GJQsqaUBKTNV-1" vertex="1">
          <mxGeometry x="354" y="760" width="20" height="20" as="geometry" />
        </mxCell>
        <mxCell id="legend-db-text" value="Persistência de Dados" style="text;html=1;strokeColor=none;fillColor=none;align=left;verticalAlign=middle;whiteSpace=wrap;rounded=0;" parent="WIyWlLk6GJQsqaUBKTNV-1" vertex="1">
          <mxGeometry x="384" y="760" width="130" height="20" as="geometry" />
        </mxCell>
        
        <!-- Legenda Monitoring -->
        <mxCell id="legend-monitoring" value="" style="rounded=1;whiteSpace=wrap;html=1;fillColor=#fff2cc;strokeColor=#d6b656;" parent="WIyWlLk6GJQsqaUBKTNV-1" vertex="1">
          <mxGeometry x="354" y="790" width="20" height="20" as="geometry" />
        </mxCell>
        <mxCell id="legend-monitoring-text" value="Monitoramento/CI/CD" style="text;html=1;strokeColor=none;fillColor=none;align=left;verticalAlign=middle;whiteSpace=wrap;rounded=0;" parent="WIyWlLk6GJQsqaUBKTNV-1" vertex="1">
          <mxGeometry x="384" y="790" width="130" height="20" as="geometry" />
        </mxCell>
        
        <!-- Legenda K8s -->
        <mxCell id="legend-k8s" value="" style="rounded=1;whiteSpace=wrap;html=1;fillColor=#f5f5f5;strokeColor=#666666;fontColor=#333333;dashed=1;" parent="WIyWlLk6GJQsqaUBKTNV-1" vertex="1">
          <mxGeometry x="574" y="730" width="20" height="20" as="geometry" />
        </mxCell>
        <mxCell id="legend-k8s-text" value="Plataforma Kubernetes" style="text;html=1;strokeColor=none;fillColor=none;align=left;verticalAlign=middle;whiteSpace=wrap;rounded=0;" parent="WIyWlLk6GJQsqaUBKTNV-1" vertex="1">
          <mxGeometry x="604" y="730" width="130" height="20" as="geometry" />
        </mxCell>
        
      </root>
    </mxGraphModel>
  </diagram>
</mxfile>]]>
